<svg width="15" height="16" viewBox="0 0 15 16" fill="none" xmlns="http://www.w3.org/2000/svg">
<path d="M0.238634 6.56064V6.66023C0.762353 9.72873 2.80397 12.3678 6.86944 15.2184C7.03575 15.3343 7.26073 15.3994 7.49524 15.3994C7.72975 15.3994 7.95472 15.3343 8.12104 15.2184C12.1865 12.3678 14.2281 9.72873 14.7518 6.66023V6.61044C14.8164 6.35764 14.852 6.10164 14.8584 5.84487V5.84487C14.8628 5.78682 14.8628 5.72864 14.8584 5.67059C14.8584 4.2947 14.0789 2.97515 12.6914 2.00225C11.3038 1.02935 9.42197 0.482773 7.45973 0.482773C5.49749 0.482773 3.61562 1.02935 2.22811 2.00225C0.840599 2.97515 0.0611029 4.2947 0.0611029 5.67059C0.0611029 5.67059 0.0611029 5.72661 0.0611029 5.85109L0.238634 6.56064ZM7.50855 1.68092C8.99652 1.68256 10.423 2.09733 11.476 2.8345C12.529 3.57167 13.1227 4.57124 13.1274 5.61457L13.012 6.42994V6.47973C12.5682 9.09387 10.8639 11.3906 7.51743 13.8553C4.17096 11.3657 2.46666 9.09387 2.02283 6.47973V6.42994L1.90743 5.6208C1.90976 4.57853 2.50006 3.57924 3.54946 2.84108C4.59887 2.10292 6.02214 1.68585 7.50855 1.68092V1.68092ZM7.50855 8.11045C8.2108 8.11045 8.89728 7.96444 9.48118 7.69087C10.0651 7.4173 10.5202 7.02847 10.7889 6.57355C11.0576 6.11862 11.128 5.61804 10.991 5.13509C10.854 4.65215 10.5158 4.20853 10.0192 3.86035C9.52266 3.51216 8.89 3.27505 8.20125 3.17898C7.51249 3.08292 6.79858 3.13222 6.14979 3.32066C5.50099 3.50909 4.94646 3.8282 4.55631 4.23762C4.16616 4.64704 3.95792 5.12839 3.95792 5.6208C3.95792 6.2811 4.332 6.91435 4.99788 7.38125C5.66375 7.84815 6.56687 8.11045 7.50855 8.11045ZM7.50855 4.37597C7.85968 4.37597 8.20292 4.44898 8.49487 4.58576C8.78682 4.72255 9.01436 4.91696 9.14873 5.14442C9.2831 5.37189 9.31826 5.62218 9.24976 5.86365C9.18126 6.10513 9.01217 6.32693 8.76389 6.50102C8.51561 6.67512 8.19928 6.79368 7.8549 6.84171C7.51052 6.88974 7.15357 6.86509 6.82917 6.77087C6.50477 6.67665 6.22751 6.5171 6.03243 6.31239C5.83736 6.10768 5.73324 5.867 5.73324 5.6208C5.73324 5.29065 5.92028 4.97402 6.25322 4.74057C6.58615 4.50712 7.03771 4.37597 7.50855 4.37597V4.37597Z" fill="white"/>
</svg>
