<svg width="32" height="25" viewBox="0 0 32 25" fill="none" xmlns="http://www.w3.org/2000/svg">
<g clip-path="url(#clip0)">
<path d="M8.98406 15.9706H12.0946V24.3698C12.0946 24.5356 12.2995 24.67 12.5523 24.67H17.8264C18.0792 24.67 18.2841 24.5356 18.2841 24.3698V16.0102H21.86C22.0925 16.0102 22.2881 15.8957 22.3146 15.7443L22.8577 12.6521C22.8727 12.567 22.8316 12.4818 22.7448 12.418C22.6579 12.3541 22.5336 12.3176 22.4032 12.3176H18.2843V10.3792C18.2843 9.79494 18.764 9.49865 19.7101 9.49865C19.8449 9.49865 22.4032 9.49865 22.4032 9.49865C22.656 9.49865 22.8609 9.36422 22.8609 9.19845V6.36014C22.8609 6.19431 22.656 6.05995 22.4032 6.05995H18.6917C18.6656 6.0591 18.6074 6.05772 18.5217 6.05772C17.8778 6.05772 15.6394 6.14064 13.8712 7.20754C11.9121 8.38984 12.1844 9.80545 12.2495 10.0509V12.3175H8.98406C8.73123 12.3175 8.52637 12.4519 8.52637 12.6177V15.6703C8.52637 15.8362 8.73123 15.9706 8.98406 15.9706Z" fill="white"/>
</g>
<defs>
<clipPath id="clip0">
<rect width="31.0581" height="24.4286" fill="white" transform="translate(0.164566 0.241394)"/>
</clipPath>
</defs>
</svg>
