<svg width="26" height="25" viewBox="0 0 26 25" fill="none" xmlns="http://www.w3.org/2000/svg">
<path d="M15.1472 13.2707H11.59C11.9251 12.5025 12.3118 11.2953 12.3118 10.0333C12.3118 8.82612 11.6931 7.86588 10.5847 7.31717C10.1465 7.09769 9.68252 7.09769 9.24431 7.31717C8.83188 7.53665 8.52256 7.92075 8.39367 8.41459L8.18746 9.29253C7.8008 10.8838 6.97594 12.283 5.89331 13.2158C5.68709 13.3804 5.48088 13.545 5.24889 13.6822C5.04267 13.4353 4.7849 13.2707 4.47558 13.2707H1.769C1.22768 13.2707 0.789474 13.7371 0.789474 14.3132V22.8731C0.789474 23.4492 1.22768 23.9156 1.769 23.9156H4.47558C4.81068 23.9156 5.12 23.7236 5.27466 23.4767C6.92439 23.998 8.41945 24.2449 10.0692 24.2449H13.9873C14.941 24.2449 15.7143 23.4218 15.7143 22.4067C15.7143 22.0775 15.637 21.7757 15.4823 21.5013C15.9721 21.1721 16.2814 20.596 16.2814 19.9649C16.2814 19.6357 16.2041 19.3339 16.0494 19.0596C16.5392 18.7303 16.8485 18.1542 16.8485 17.5232C16.8485 17.0568 16.6681 16.6178 16.4103 16.2886C16.6939 15.9594 16.8485 15.5478 16.8485 15.054C16.8485 14.0663 16.0752 13.2707 15.1472 13.2707ZM3.13518 22.4616C2.72275 22.4616 2.38765 22.1049 2.38765 21.6659C2.38765 21.227 2.72275 20.8703 3.13518 20.8703C3.54761 20.8703 3.88271 21.227 3.88271 21.6659C3.85693 22.1323 3.52183 22.4616 3.13518 22.4616ZM14.0646 16.9196H15.1472C15.4566 16.9196 15.7401 17.194 15.7401 17.5506C15.7401 17.9073 15.4823 18.1816 15.1472 18.1816H13.8584C13.5491 18.1816 13.2913 18.456 13.2913 18.7852C13.2913 19.1144 13.5491 19.3888 13.8584 19.3888H14.5801C14.9152 19.3888 15.173 19.6631 15.173 20.0198C15.173 20.3765 14.9152 20.6508 14.5801 20.6508H13.446C13.1366 20.6508 12.8789 20.9252 12.8789 21.2544C12.8789 21.5836 13.1366 21.858 13.446 21.858H14.013C14.3224 21.858 14.6059 22.1323 14.6059 22.489C14.6059 22.8182 14.3481 23.12 14.013 23.12H10.0692C8.49678 23.12 7.05327 22.8731 5.4551 22.3793V14.9717C5.81598 14.7796 6.20263 14.5327 6.56351 14.2309C7.85236 13.1335 8.80611 11.5148 9.27009 9.67662L9.47631 8.79869C9.52786 8.60664 9.63097 8.52433 9.7083 8.4969C9.78563 8.46946 9.91451 8.41459 10.095 8.4969C10.8167 8.85356 11.1776 9.37483 11.1776 10.1156C11.1776 11.9538 10.1981 13.6273 10.1723 13.6548C10.0692 13.8468 10.0434 14.0663 10.1465 14.2584C10.2496 14.4504 10.4301 14.5601 10.6363 14.5601H15.1215C15.4308 14.5601 15.7143 14.8345 15.7143 15.1912C15.7143 15.5204 15.4566 15.8222 15.1215 15.8222H14.0646C13.7553 15.8222 13.4975 16.0965 13.4975 16.4258C13.4975 16.755 13.7553 16.9196 14.0646 16.9196Z" fill="white"/>
<path d="M19.3489 0.979584C16.0752 0.979584 13.4202 3.03725 13.4202 5.56131C13.4202 6.93309 14.1935 8.19512 15.5339 9.07306C15.4566 9.48459 15.1472 10.143 14.7348 10.8289C14.6317 10.9935 14.6317 11.213 14.7348 11.3776C14.8121 11.5148 14.9668 11.5971 15.1215 11.5971C15.1472 11.5971 15.1988 11.5971 15.2246 11.5971C16.2041 11.3502 17.3641 10.9935 18.4725 10.1156C18.7818 10.143 19.0653 10.1705 19.3489 10.1705C22.6226 10.1705 25.2776 8.11281 25.2776 5.58875C25.2776 3.03725 22.6226 0.979584 19.3489 0.979584ZM21.3853 5.80823L19.5035 7.81102C19.4262 7.89333 19.2715 7.89333 19.1942 7.81102L17.3641 5.8631C16.9774 5.45157 16.8485 4.84799 17.0805 4.32672C17.4929 3.47621 18.4982 3.36647 19.0653 3.97005L19.3489 4.27184L19.6066 3.99749C19.9933 3.58596 20.5604 3.44878 21.0502 3.6957C21.8492 4.10723 21.9524 5.17722 21.3853 5.80823Z" fill="white"/>
</svg>
