<svg xmlns="http://www.w3.org/2000/svg" xmlns:xlink="http://www.w3.org/1999/xlink" version="1.1" x="0px" y="0px" viewBox="0 0 90 112.5" enable-background="new 0 0 90 90" xml:space="preserve"><path d="M33.704,49.87v19.707c0,2.645,1.151,3.781,2.188,4.521l6.733,4.822c1.303,0.936,2.787,1.283,4.1,1.283h24.536  c3.578,0,5.651-2.355,6.692-6.393l6.595-25.568c0.953-4.719-0.563-10.604-8.584-10.604H65.766V25.694  c0-8.844-2.167-13.621-7.682-13.828c-4.708-0.063-1.068,10.771-8.333,17.951L36.381,43.019  C33.803,45.567,33.704,46.741,33.704,49.87z"/><path fill-rule="evenodd" clip-rule="evenodd" d="M8.745,41.729h15.704c1.911,0,3.446,1.369,3.446,3.057v32.361  c0,1.691-1.536,3.053-3.446,3.053H8.745c-1.911,0-3.448-1.361-3.448-3.053V44.786C5.297,43.099,6.834,41.729,8.745,41.729z"/><text x="0" y="105" fill="#000000" font-size="5px" font-weight="bold" font-family="'Helvetica Neue', Helvetica, Arial-Unicode, Arial, Sans-serif">Created by Cuputo</text><text x="0" y="110" fill="#000000" font-size="5px" font-weight="bold" font-family="'Helvetica Neue', Helvetica, Arial-Unicode, Arial, Sans-serif">from the Noun Project</text></svg>