<svg xmlns="http://www.w3.org/2000/svg" viewBox="0 0 32 40" x="0px" y="0px"><title>03</title><g data-name="01"><path d="M7.81,13.84V14c.59,4.93,2.89,9.17,7.47,13.75a1,1,0,0,0,1.41,0c4.58-4.58,6.88-8.82,7.47-13.75v0h0v-.08h0a7.75,7.75,0,0,0,.12-1.23h0a2.61,2.61,0,0,0,0-.28,8.33,8.33,0,1,0-16.67,0s0,.09,0,.29ZM16,6a6.34,6.34,0,0,1,6.33,6.32l-.13,1.31v.08h0c-.5,4.2-2.42,7.89-6.19,11.85-3.77-4-5.69-7.65-6.19-11.85h0v-.08h0l-.13-1.3A6.34,6.34,0,0,1,16,6Zm0,10.33a4,4,0,1,0-4-4A4,4,0,0,0,16,16.33Zm0-6a2,2,0,1,1-2,2A2,2,0,0,1,16,10.33Z"/></g><text x="0" y="47" fill="#000000" font-size="5px" font-weight="bold" font-family="'Helvetica Neue', Helvetica, Arial-Unicode, Arial, Sans-serif">Created by Monster Icon</text><text x="0" y="52" fill="#000000" font-size="5px" font-weight="bold" font-family="'Helvetica Neue', Helvetica, Arial-Unicode, Arial, Sans-serif">from the Noun Project</text></svg>