<svg width="165" height="24" viewBox="0 0 165 24" fill="none" xmlns="http://www.w3.org/2000/svg">
<path d="M9.78814 0L11.9857 8.2918H19.0972L13.3439 13.4164L15.5415 21.7082L9.78814 16.5836L4.03481 21.7082L6.23239 13.4164L0.479066 8.2918H7.59056L9.78814 0Z" fill="url(#paint0_linear)"/>
<path d="M9.78814 0L11.9857 8.2918H19.0972L13.3439 13.4164L15.5415 21.7082L9.78814 16.5836L4.03481 21.7082L6.23239 13.4164L0.479066 8.2918H7.59056L9.78814 0Z" fill="url(#paint1_linear)"/>
<path d="M9.78814 0L11.9857 8.2918H19.0972L13.3439 13.4164L15.5415 21.7082L9.78814 16.5836L4.03481 21.7082L6.23239 13.4164L0.479066 8.2918H7.59056L9.78814 0Z" fill="url(#paint2_linear)"/>
<path d="M155.212 0L157.409 8.2918H164.521L158.768 13.4164L160.965 21.7082L155.212 16.5836L149.459 21.7082L151.656 13.4164L145.903 8.2918H153.014L155.212 0Z" fill="url(#paint3_linear)"/>
<path d="M155.212 0L157.409 8.2918H164.521L158.768 13.4164L160.965 21.7082L155.212 16.5836L149.459 21.7082L151.656 13.4164L145.903 8.2918H153.014L155.212 0Z" fill="url(#paint4_linear)"/>
<path d="M155.212 0L157.409 8.2918H164.521L158.768 13.4164L160.965 21.7082L155.212 16.5836L149.459 21.7082L151.656 13.4164L145.903 8.2918H153.014L155.212 0Z" fill="url(#paint5_linear)"/>
<path d="M118.856 0L121.054 8.2918H128.165L122.412 13.4164L124.609 21.7082L118.856 16.5836L113.103 21.7082L115.3 13.4164L109.547 8.2918H116.658L118.856 0Z" fill="url(#paint6_linear)"/>
<path d="M118.856 0L121.054 8.2918H128.165L122.412 13.4164L124.609 21.7082L118.856 16.5836L113.103 21.7082L115.3 13.4164L109.547 8.2918H116.658L118.856 0Z" fill="url(#paint7_linear)"/>
<path d="M118.856 0L121.054 8.2918H128.165L122.412 13.4164L124.609 21.7082L118.856 16.5836L113.103 21.7082L115.3 13.4164L109.547 8.2918H116.658L118.856 0Z" fill="url(#paint8_linear)"/>
<path d="M82.5 0L84.6976 8.2918H91.8091L86.0557 13.4164L88.2533 21.7082L82.5 16.5836L76.7467 21.7082L78.9442 13.4164L73.1909 8.2918H80.3024L82.5 0Z" fill="url(#paint9_linear)"/>
<path d="M82.5 0L84.6976 8.2918H91.8091L86.0557 13.4164L88.2533 21.7082L82.5 16.5836L76.7467 21.7082L78.9442 13.4164L73.1909 8.2918H80.3024L82.5 0Z" fill="url(#paint10_linear)"/>
<path d="M82.5 0L84.6976 8.2918H91.8091L86.0557 13.4164L88.2533 21.7082L82.5 16.5836L76.7467 21.7082L78.9442 13.4164L73.1909 8.2918H80.3024L82.5 0Z" fill="url(#paint11_linear)"/>
<path d="M46.1441 0L48.3416 8.2918H55.4531L49.6998 13.4164L51.8974 21.7082L46.1441 16.5836L40.3907 21.7082L42.5883 13.4164L36.835 8.2918H43.9465L46.1441 0Z" fill="url(#paint12_linear)"/>
<path d="M46.1441 0L48.3416 8.2918H55.4531L49.6998 13.4164L51.8974 21.7082L46.1441 16.5836L40.3907 21.7082L42.5883 13.4164L36.835 8.2918H43.9465L46.1441 0Z" fill="url(#paint13_linear)"/>
<path d="M46.1441 0L48.3416 8.2918H55.4531L49.6998 13.4164L51.8974 21.7082L46.1441 16.5836L40.3907 21.7082L42.5883 13.4164L36.835 8.2918H43.9465L46.1441 0Z" fill="url(#paint14_linear)"/>
<defs>
<linearGradient id="paint0_linear" x1="9.78814" y1="0" x2="9.78814" y2="24" gradientUnits="userSpaceOnUse">
<stop stop-color="white"/>
<stop offset="1" stop-color="#007E92"/>
</linearGradient>
<linearGradient id="paint1_linear" x1="9.78814" y1="0" x2="9.78814" y2="24" gradientUnits="userSpaceOnUse">
<stop stop-color="white"/>
<stop offset="1" stop-color="#007E92"/>
</linearGradient>
<linearGradient id="paint2_linear" x1="9.78814" y1="0" x2="9.78814" y2="24" gradientUnits="userSpaceOnUse">
<stop stop-color="white"/>
<stop offset="1" stop-color="#007E92"/>
</linearGradient>
<linearGradient id="paint3_linear" x1="155.212" y1="0" x2="155.212" y2="24" gradientUnits="userSpaceOnUse">
<stop stop-color="white"/>
<stop offset="1" stop-color="#007E92"/>
</linearGradient>
<linearGradient id="paint4_linear" x1="155.212" y1="0" x2="155.212" y2="24" gradientUnits="userSpaceOnUse">
<stop stop-color="white"/>
<stop offset="1" stop-color="#007E92"/>
</linearGradient>
<linearGradient id="paint5_linear" x1="155.212" y1="0" x2="155.212" y2="24" gradientUnits="userSpaceOnUse">
<stop stop-color="white"/>
<stop offset="1" stop-color="#007E92"/>
</linearGradient>
<linearGradient id="paint6_linear" x1="118.856" y1="0" x2="118.856" y2="24" gradientUnits="userSpaceOnUse">
<stop stop-color="white"/>
<stop offset="1" stop-color="#007E92"/>
</linearGradient>
<linearGradient id="paint7_linear" x1="118.856" y1="0" x2="118.856" y2="24" gradientUnits="userSpaceOnUse">
<stop stop-color="white"/>
<stop offset="1" stop-color="#007E92"/>
</linearGradient>
<linearGradient id="paint8_linear" x1="118.856" y1="0" x2="118.856" y2="24" gradientUnits="userSpaceOnUse">
<stop stop-color="white"/>
<stop offset="1" stop-color="#007E92"/>
</linearGradient>
<linearGradient id="paint9_linear" x1="82.5" y1="0" x2="82.5" y2="24" gradientUnits="userSpaceOnUse">
<stop stop-color="white"/>
<stop offset="1" stop-color="#007E92"/>
</linearGradient>
<linearGradient id="paint10_linear" x1="82.5" y1="0" x2="82.5" y2="24" gradientUnits="userSpaceOnUse">
<stop stop-color="white"/>
<stop offset="1" stop-color="#007E92"/>
</linearGradient>
<linearGradient id="paint11_linear" x1="82.5" y1="0" x2="82.5" y2="24" gradientUnits="userSpaceOnUse">
<stop stop-color="white"/>
<stop offset="1" stop-color="#007E92"/>
</linearGradient>
<linearGradient id="paint12_linear" x1="46.1441" y1="0" x2="46.1441" y2="24" gradientUnits="userSpaceOnUse">
<stop stop-color="white"/>
<stop offset="1" stop-color="#007E92"/>
</linearGradient>
<linearGradient id="paint13_linear" x1="46.1441" y1="0" x2="46.1441" y2="24" gradientUnits="userSpaceOnUse">
<stop stop-color="white"/>
<stop offset="1" stop-color="#007E92"/>
</linearGradient>
<linearGradient id="paint14_linear" x1="46.1441" y1="0" x2="46.1441" y2="24" gradientUnits="userSpaceOnUse">
<stop stop-color="white"/>
<stop offset="1" stop-color="#007E92"/>
</linearGradient>
</defs>
</svg>
